<svg width="68" height="15" viewBox="0 0 68 15" fill="none" xmlns="http://www.w3.org/2000/svg">
<path d="M7.232 15L3.888 7.4L0.656 15H0L4.768 3.8L9.744 15H7.232ZM17.83 4.392H16.294V9.096H17.83C18.4807 9.096 19.03 8.86667 19.478 8.408C19.9367 7.94933 20.166 7.4 20.166 6.76C20.166 6.10933 19.9367 5.55467 19.478 5.096C19.03 4.62667 18.4807 4.392 17.83 4.392ZM13.99 15V3.8H19.51C20.3313 3.8 21.03 4.088 21.606 4.664C22.182 5.24 22.47 5.93867 22.47 6.76C22.47 7.58133 22.1713 8.27467 21.574 8.84C20.9873 9.40533 20.2833 9.688 19.462 9.688C20.1233 10.0507 20.646 10.664 21.03 11.528L22.566 15H20.038L18.278 11.08C18.0753 10.6 17.8673 10.248 17.654 10.024C17.4407 9.8 17.1633 9.688 16.822 9.688H16.294V15H13.99ZM33.5774 15L30.2334 7.4L27.0014 15H26.3454L31.1134 3.8L36.0894 15H33.5774ZM30.6814 0.599999H32.8734L30.1374 3.176H29.5774L30.6814 0.599999ZM42.6074 15H40.3194V3.8H42.6074V15ZM47.7262 3.8H50.0142V14.392H55.2782V15H47.7262V3.8ZM59.4612 15V3.8H67.0292V4.392H61.7492V8.408H66.2932V9.016H61.7492V14.392H67.0292V15H59.4612ZM62.7092 0.599999H64.8852L62.1652 3.176H61.6052L62.7092 0.599999Z" fill="#E9D6B8"/>
</svg>
