<svg width="118" height="26" viewBox="0 0 118 26" fill="none" xmlns="http://www.w3.org/2000/svg">
<path d="M12.656 26L6.804 12.7L1.148 26H0L8.344 6.4L17.052 26H12.656ZM31.2025 7.436H28.5145V15.668H31.2025C32.3412 15.668 33.3025 15.2667 34.0865 14.464C34.8892 13.6613 35.2905 12.7 35.2905 11.58C35.2905 10.4413 34.8892 9.47067 34.0865 8.668C33.3025 7.84667 32.3412 7.436 31.2025 7.436ZM24.4825 26V6.4H34.1425C35.5798 6.4 36.8025 6.904 37.8105 7.912C38.8185 8.92 39.3225 10.1427 39.3225 11.58C39.3225 13.0173 38.7998 14.2307 37.7545 15.22C36.7278 16.2093 35.4958 16.704 34.0585 16.704C35.2158 17.3387 36.1305 18.412 36.8025 19.924L39.4905 26H35.0665L31.9865 19.14C31.6318 18.3 31.2678 17.684 30.8945 17.292C30.5212 16.9 30.0358 16.704 29.4385 16.704H28.5145V26H24.4825ZM58.7604 26L52.9084 12.7L47.2524 26H46.1044L54.4484 6.4L63.1564 26H58.7604ZM53.6924 0.799999H57.5284L52.7404 5.308H51.7604L53.6924 0.799999ZM74.5629 26H70.5589V6.4H74.5629V26ZM83.5209 6.4H87.5249V24.936H96.7369V26H83.5209V6.4ZM104.057 26V6.4H117.301V7.436H108.061V14.464H116.013V15.528H108.061V24.936H117.301V26H104.057ZM109.741 0.799999H113.549L108.789 5.308H107.809L109.741 0.799999Z" fill="#DCC9AC"/>
</svg>
