<svg width="269" height="41" viewBox="0 0 269 41" fill="none" xmlns="http://www.w3.org/2000/svg">
<rect x="0.5" y="0.5" width="268" height="40" stroke="white"/>
<path d="M24.464 31L17.776 15.8L11.312 31H10L19.536 8.6L29.488 31H24.464ZM45.66 9.784H42.588V19.192H45.66C46.9613 19.192 48.06 18.7333 48.956 17.816C49.8733 16.8987 50.332 15.8 50.332 14.52C50.332 13.2187 49.8733 12.1093 48.956 11.192C48.06 10.2533 46.9613 9.784 45.66 9.784ZM37.98 31V8.6H49.02C50.6627 8.6 52.06 9.176 53.212 10.328C54.364 11.48 54.94 12.8773 54.94 14.52C54.94 16.1627 54.3427 17.5493 53.148 18.68C51.9747 19.8107 50.5667 20.376 48.924 20.376C50.2467 21.1013 51.292 22.328 52.06 24.056L55.132 31H50.076L46.556 23.16C46.1507 22.2 45.7347 21.496 45.308 21.048C44.8813 20.6 44.3267 20.376 43.644 20.376H42.588V31H37.98ZM77.1547 31L70.4667 15.8L64.0027 31H62.6907L72.2267 8.6L82.1787 31H77.1547ZM71.3627 2.2H75.7467L70.2747 7.352H69.1547L71.3627 2.2ZM95.2147 31H90.6387V8.6H95.2147V31ZM105.452 8.6H110.028V29.784H120.556V31H105.452V8.6ZM128.922 31V8.6H144.058V9.784H133.498V17.816H142.586V19.032H133.498V29.784H144.058V31H128.922ZM135.418 2.2H139.77L134.33 7.352H133.21L135.418 2.2ZM171.929 31H163.705V8.6H171.929C175.022 8.6 177.572 9.656 179.577 11.768C181.604 13.88 182.617 16.5573 182.617 19.8C182.617 23.0427 181.604 25.72 179.577 27.832C177.572 29.944 175.022 31 171.929 31ZM170.265 9.784H168.313V29.784H170.265C171.332 29.784 172.302 29.592 173.177 29.208C174.052 28.824 174.788 28.312 175.385 27.672C175.982 27.0107 176.484 26.2533 176.889 25.4C177.294 24.5253 177.582 23.6187 177.753 22.68C177.945 21.7413 178.041 20.7813 178.041 19.8C178.041 18.8187 177.945 17.8587 177.753 16.92C177.582 15.9813 177.284 15.0853 176.857 14.232C176.452 13.3573 175.95 12.6 175.353 11.96C174.777 11.2987 174.052 10.776 173.177 10.392C172.302 9.98667 171.332 9.784 170.265 9.784ZM192.885 9.784H189.813V19.192H192.885C194.186 19.192 195.285 18.7333 196.181 17.816C197.098 16.8987 197.557 15.8 197.557 14.52C197.557 13.2187 197.098 12.1093 196.181 11.192C195.285 10.2533 194.186 9.784 192.885 9.784ZM185.205 31V8.6H196.245C197.888 8.6 199.285 9.176 200.437 10.328C201.589 11.48 202.165 12.8773 202.165 14.52C202.165 16.1627 201.568 17.5493 200.373 18.68C199.2 19.8107 197.792 20.376 196.149 20.376C197.472 21.1013 198.517 22.328 199.285 24.056L202.357 31H197.301L193.781 23.16C193.376 22.2 192.96 21.496 192.533 21.048C192.106 20.6 191.552 20.376 190.869 20.376H189.813V31H185.205ZM204.924 31V8.6H220.06V9.784H209.5V17.816H218.588V19.032H209.5V29.784H220.06V31H204.924ZM221.123 13.048C221.464 11.7467 222.35 10.68 223.779 9.848C225.208 9.016 227.032 8.6 229.251 8.6C231.832 8.6 234.286 9.208 236.611 10.424L236.099 11.416C233.944 10.2213 231.736 9.624 229.475 9.624C228.536 9.624 227.651 9.79467 226.819 10.136C225.987 10.456 225.422 10.9893 225.123 11.736C224.867 12.4187 224.931 13.112 225.315 13.816C225.699 14.4987 226.424 15.0427 227.491 15.448L233.091 17.592C235.416 18.5093 237.027 19.7467 237.923 21.304C238.84 22.84 239.032 24.3867 238.499 25.944C238.03 27.3947 237.016 28.6 235.459 29.56C233.902 30.52 231.971 31 229.667 31C228.003 31 226.371 30.6587 224.771 29.976C223.192 29.2933 221.934 28.3653 220.995 27.192L221.859 26.456C222.819 27.5653 223.971 28.408 225.315 28.984C226.659 29.56 228.11 29.848 229.667 29.848C230.99 29.848 232.078 29.5813 232.931 29.048C233.806 28.5147 234.382 27.832 234.659 27C234.958 26.04 234.819 25.0693 234.243 24.088C233.688 23.1067 232.75 22.36 231.427 21.848L225.571 19.608C223.758 18.9253 222.478 17.976 221.731 16.76C220.984 15.5227 220.782 14.2853 221.123 13.048ZM240.31 13.048C240.652 11.7467 241.537 10.68 242.966 9.848C244.396 9.016 246.22 8.6 248.438 8.6C251.02 8.6 253.473 9.208 255.798 10.424L255.286 11.416C253.132 10.2213 250.924 9.624 248.662 9.624C247.724 9.624 246.838 9.79467 246.006 10.136C245.174 10.456 244.609 10.9893 244.31 11.736C244.054 12.4187 244.118 13.112 244.502 13.816C244.886 14.4987 245.612 15.0427 246.678 15.448L252.278 17.592C254.604 18.5093 256.214 19.7467 257.11 21.304C258.028 22.84 258.22 24.3867 257.686 25.944C257.217 27.3947 256.204 28.6 254.646 29.56C253.089 30.52 251.158 31 248.854 31C247.19 31 245.558 30.6587 243.958 29.976C242.38 29.2933 241.121 28.3653 240.182 27.192L241.046 26.456C242.006 27.5653 243.158 28.408 244.502 28.984C245.846 29.56 247.297 29.848 248.854 29.848C250.177 29.848 251.265 29.5813 252.118 29.048C252.993 28.5147 253.569 27.832 253.846 27C254.145 26.04 254.006 25.0693 253.43 24.088C252.876 23.1067 251.937 22.36 250.614 21.848L244.758 19.608C242.945 18.9253 241.665 17.976 240.918 16.76C240.172 15.5227 239.969 14.2853 240.31 13.048Z" fill="white"/>
</svg>
