<svg width="309" height="41" viewBox="0 0 309 41" fill="none" xmlns="http://www.w3.org/2000/svg">
<rect x="0.5" y="0.5" width="308" height="40" stroke="white"/>
<path d="M24.464 31L17.776 15.8L11.312 31H10L19.536 8.6L29.488 31H24.464ZM45.66 9.784H42.588V19.192H45.66C46.9613 19.192 48.06 18.7333 48.956 17.816C49.8733 16.8987 50.332 15.8 50.332 14.52C50.332 13.2187 49.8733 12.1093 48.956 11.192C48.06 10.2533 46.9613 9.784 45.66 9.784ZM37.98 31V8.6H49.02C50.6627 8.6 52.06 9.176 53.212 10.328C54.364 11.48 54.94 12.8773 54.94 14.52C54.94 16.1627 54.3427 17.5493 53.148 18.68C51.9747 19.8107 50.5667 20.376 48.924 20.376C50.2467 21.1013 51.292 22.328 52.06 24.056L55.132 31H50.076L46.556 23.16C46.1507 22.2 45.7347 21.496 45.308 21.048C44.8813 20.6 44.3267 20.376 43.644 20.376H42.588V31H37.98ZM77.1547 31L70.4667 15.8L64.0027 31H62.6907L72.2267 8.6L82.1787 31H77.1547ZM71.3627 2.2H75.7467L70.2747 7.352H69.1547L71.3627 2.2ZM95.2147 31H90.6387V8.6H95.2147V31ZM105.452 8.6H110.028V29.784H120.556V31H105.452V8.6ZM128.922 31V8.6H144.058V9.784H133.498V17.816H142.586V19.032H133.498V29.784H144.058V31H128.922ZM135.418 2.2H139.77L134.33 7.352H133.21L135.418 2.2ZM161.881 8.6H166.905L173.593 23.8L180.025 8.6H181.369L171.801 31L161.881 8.6ZM183.111 31V8.6H198.247V9.784H187.687V17.816H196.775V19.032H187.687V29.784H198.247V31H183.111ZM199.31 13.048C199.652 11.7467 200.537 10.68 201.966 9.848C203.396 9.016 205.22 8.6 207.438 8.6C210.02 8.6 212.473 9.208 214.798 10.424L214.286 11.416C212.132 10.2213 209.924 9.624 207.662 9.624C206.724 9.624 205.838 9.79467 205.006 10.136C204.174 10.456 203.609 10.9893 203.31 11.736C203.054 12.4187 203.118 13.112 203.502 13.816C203.886 14.4987 204.612 15.0427 205.678 15.448L211.278 17.592C213.604 18.5093 215.214 19.7467 216.11 21.304C217.028 22.84 217.22 24.3867 216.686 25.944C216.217 27.3947 215.204 28.6 213.646 29.56C212.089 30.52 210.158 31 207.854 31C206.19 31 204.558 30.6587 202.958 29.976C201.38 29.2933 200.121 28.3653 199.182 27.192L200.046 26.456C201.006 27.5653 202.158 28.408 203.502 28.984C204.846 29.56 206.297 29.848 207.854 29.848C209.177 29.848 210.265 29.5813 211.118 29.048C211.993 28.5147 212.569 27.832 212.846 27C213.145 26.04 213.006 25.0693 212.43 24.088C211.876 23.1067 210.937 22.36 209.614 21.848L203.758 19.608C201.945 18.9253 200.665 17.976 199.918 16.76C199.172 15.5227 198.969 14.2853 199.31 13.048ZM223.437 9.784H216.941V8.6H234.477V9.784H228.013V31H223.437V9.784ZM245.935 13.048C246.277 11.7467 247.162 10.68 248.591 9.848C250.021 9.016 251.845 8.6 254.063 8.6C256.645 8.6 259.098 9.208 261.423 10.424L260.911 11.416C258.757 10.2213 256.549 9.624 254.287 9.624C253.349 9.624 252.463 9.79467 251.631 10.136C250.799 10.456 250.234 10.9893 249.935 11.736C249.679 12.4187 249.743 13.112 250.127 13.816C250.511 14.4987 251.237 15.0427 252.303 15.448L257.903 17.592C260.229 18.5093 261.839 19.7467 262.735 21.304C263.653 22.84 263.845 24.3867 263.311 25.944C262.842 27.3947 261.829 28.6 260.271 29.56C258.714 30.52 256.783 31 254.479 31C252.815 31 251.183 30.6587 249.583 29.976C248.005 29.2933 246.746 28.3653 245.807 27.192L246.671 26.456C247.631 27.5653 248.783 28.408 250.127 28.984C251.471 29.56 252.922 29.848 254.479 29.848C255.802 29.848 256.89 29.5813 257.743 29.048C258.618 28.5147 259.194 27.832 259.471 27C259.77 26.04 259.631 25.0693 259.055 24.088C258.501 23.1067 257.562 22.36 256.239 21.848L250.383 19.608C248.57 18.9253 247.29 17.976 246.543 16.76C245.797 15.5227 245.594 14.2853 245.935 13.048ZM265.955 31V8.6H281.091V9.784H270.531V17.816H279.619V19.032H270.531V29.784H281.091V31H265.955ZM287.844 9.784H281.348V8.6H298.884V9.784H292.42V31H287.844V9.784Z" fill="white"/>
</svg>
