<svg width="249" height="41" viewBox="0 0 249 41" fill="none" xmlns="http://www.w3.org/2000/svg">
<rect x="0.5" y="0.5" width="248" height="40" stroke="white"/>
<path d="M24.464 31L17.776 15.8L11.312 31H10L19.536 8.6L29.488 31H24.464ZM45.66 9.784H42.588V19.192H45.66C46.9613 19.192 48.06 18.7333 48.956 17.816C49.8733 16.8987 50.332 15.8 50.332 14.52C50.332 13.2187 49.8733 12.1093 48.956 11.192C48.06 10.2533 46.9613 9.784 45.66 9.784ZM37.98 31V8.6H49.02C50.6627 8.6 52.06 9.176 53.212 10.328C54.364 11.48 54.94 12.8773 54.94 14.52C54.94 16.1627 54.3427 17.5493 53.148 18.68C51.9747 19.8107 50.5667 20.376 48.924 20.376C50.2467 21.1013 51.292 22.328 52.06 24.056L55.132 31H50.076L46.556 23.16C46.1507 22.2 45.7347 21.496 45.308 21.048C44.8813 20.6 44.3267 20.376 43.644 20.376H42.588V31H37.98ZM77.1547 31L70.4667 15.8L64.0027 31H62.6907L72.2267 8.6L82.1787 31H77.1547ZM71.3627 2.2H75.7467L70.2747 7.352H69.1547L71.3627 2.2ZM95.2147 31H90.6387V8.6H95.2147V31ZM105.452 8.6H110.028V29.784H120.556V31H105.452V8.6ZM128.922 31V8.6H144.058V9.784H133.498V17.816H142.586V19.032H133.498V29.784H144.058V31H128.922ZM135.418 2.2H139.77L134.33 7.352H133.21L135.418 2.2ZM168.281 9.784H161.785V8.6H179.321V9.784H172.857V31H168.281V9.784ZM177.744 19.8C177.744 17.7733 178.235 15.9067 179.216 14.2C180.219 12.472 181.584 11.1067 183.312 10.104C185.04 9.10133 186.918 8.6 188.944 8.6C190.971 8.6 192.838 9.10133 194.544 10.104C196.272 11.1067 197.638 12.472 198.64 14.2C199.643 15.9067 200.144 17.7733 200.144 19.8C200.144 21.8267 199.643 23.704 198.64 25.432C197.638 27.1387 196.272 28.4933 194.544 29.496C192.838 30.4987 190.971 31 188.944 31C186.918 31 185.04 30.4987 183.312 29.496C181.584 28.4933 180.219 27.1387 179.216 25.432C178.235 23.704 177.744 21.8267 177.744 19.8ZM185.616 11.32C184.059 11.32 182.811 11.7893 181.872 12.728C180.571 14.008 180.155 15.8 180.624 18.104C181.094 20.408 182.31 22.5307 184.272 24.472C185.488 25.688 186.8 26.6267 188.208 27.288C189.616 27.928 190.96 28.248 192.24 28.248C193.819 28.248 195.078 27.7787 196.016 26.84C197.318 25.56 197.734 23.7787 197.264 21.496C196.795 19.192 195.579 17.0693 193.616 15.128C192.4 13.912 191.078 12.9733 189.648 12.312C188.24 11.6507 186.896 11.32 185.616 11.32ZM202.674 8.6H212.562C214.375 8.6 215.922 9.25067 217.202 10.552C218.503 11.832 219.154 13.3787 219.154 15.192C219.154 17.0053 218.503 18.552 217.202 19.832C215.922 21.112 214.375 21.752 212.562 21.752H207.25V31H202.674V8.6ZM209.17 9.784H207.25V20.536H209.17C210.642 20.536 211.9 20.0133 212.946 18.968C214.012 17.9227 214.546 16.664 214.546 15.192C214.546 13.72 214.012 12.4507 212.946 11.384C211.9 10.3173 210.642 9.784 209.17 9.784ZM220.56 13.048C220.902 11.7467 221.787 10.68 223.216 9.848C224.646 9.016 226.47 8.6 228.688 8.6C231.27 8.6 233.723 9.208 236.048 10.424L235.536 11.416C233.382 10.2213 231.174 9.624 228.912 9.624C227.974 9.624 227.088 9.79467 226.256 10.136C225.424 10.456 224.859 10.9893 224.56 11.736C224.304 12.4187 224.368 13.112 224.752 13.816C225.136 14.4987 225.862 15.0427 226.928 15.448L232.528 17.592C234.854 18.5093 236.464 19.7467 237.36 21.304C238.278 22.84 238.47 24.3867 237.936 25.944C237.467 27.3947 236.454 28.6 234.896 29.56C233.339 30.52 231.408 31 229.104 31C227.44 31 225.808 30.6587 224.208 29.976C222.63 29.2933 221.371 28.3653 220.432 27.192L221.296 26.456C222.256 27.5653 223.408 28.408 224.752 28.984C226.096 29.56 227.547 29.848 229.104 29.848C230.427 29.848 231.515 29.5813 232.368 29.048C233.243 28.5147 233.819 27.832 234.096 27C234.395 26.04 234.256 25.0693 233.68 24.088C233.126 23.1067 232.187 22.36 230.864 21.848L225.008 19.608C223.195 18.9253 221.915 17.976 221.168 16.76C220.422 15.5227 220.219 14.2853 220.56 13.048Z" fill="white"/>
</svg>
