<svg width="1440" height="947" viewBox="0 0 1440 947" fill="none" xmlns="http://www.w3.org/2000/svg">
<path d="M21.5149 281.601L37.5585 27.4597L-157.6 188.909L-175.468 179.662L112.272 -58.1916L89.9358 317.009L21.5149 281.601ZM459.705 142.049L417.868 120.398L351.562 248.524L393.399 270.175C411.122 279.346 429.317 280.843 447.985 274.665C466.943 268.637 480.932 256.907 489.954 239.475C499.125 221.752 500.697 203.412 494.669 184.454C489.082 165.356 477.427 151.221 459.705 142.049ZM205.587 376.859L363.457 71.7975L513.808 149.605C536.18 161.182 551.15 178.875 558.72 202.683C566.29 226.49 564.286 249.58 552.709 271.951C541.132 294.322 523.224 308.997 498.985 315.976C475.037 323.105 451.878 320.881 429.506 309.303C442.408 328.504 447.999 352.577 446.279 381.523L439.176 497.742L370.32 462.109L377.636 330.529C378.882 314.598 378.178 302.079 375.525 292.971C372.871 283.862 366.896 276.903 357.599 272.091L343.218 264.649L268.342 409.335L205.587 376.859ZM739.1 652.954L755.144 398.812L559.986 560.261L542.118 551.015L829.857 313.161L807.521 688.362L739.1 652.954ZM863.196 219.911L922.901 250.809L812.068 282.407L796.815 274.514L863.196 219.911ZM985.056 780.236L922.736 747.986L1080.61 442.925L1142.93 475.175L985.056 780.236ZM1282.35 547.329L1344.67 579.579L1195.37 868.08L1338.75 942.279L1330.18 958.839L1124.48 852.39L1282.35 547.329ZM1444.12 1017.8L1601.99 712.74L1808.12 819.415L1799.78 835.54L1655.96 761.115L1599.35 870.501L1723.12 934.552L1714.55 951.112L1590.78 887.062L1515.01 1033.49L1658.82 1107.92L1650.25 1124.48L1444.12 1017.8ZM1735.56 671.362L1794.83 702.034L1684.43 733.858L1669.18 725.964L1735.56 671.362Z" fill="#2A3048" fill-opacity="0.1"/>
</svg>
