<svg width="136" height="28" viewBox="0 0 136 28" fill="none" xmlns="http://www.w3.org/2000/svg">
<rect x="0.5" y="1" width="135" height="26" fill="#212638"/>
<rect x="0.5" y="1" width="135" height="26" stroke="#212638"/>
<path d="M11.36 20.5V15.56H10.2V14.08H11.36V12.64H10.2V11.16H11.36V6.22H14.5L16.06 11.16H17.88V6.22H20.1V11.16H21.24V12.64H20.1V14.08H21.24V15.56H20.1V20.5H16.94L15.34 15.56H13.58V20.5H11.36ZM13.58 14.08H14.9L14.46 12.64H13.54L13.58 14.08ZM17.94 17.38H18.04L17.96 15.56H17.42L17.94 17.38ZM13.5 11.16H14.06L13.48 9.24H13.4L13.5 11.16ZM17 14.08H17.92L17.88 12.64H16.54L17 14.08ZM29.5253 6.5H31.9053V20.5H29.0253V8.94C28.7453 9.19333 28.3186 9.44667 27.7453 9.7C27.1853 9.94 26.672 10.0867 26.2053 10.14L25.9653 9.3C26.7386 9.1 27.4586 8.72667 28.1253 8.18C28.8053 7.63333 29.272 7.07333 29.5253 6.5ZM45.8881 6.5H47.3281V17.32H48.9881V18.08H47.3281V20.5H44.4481V18.08H38.0081V17.42C38.9148 16.8467 39.5748 16.1333 39.9881 15.28C40.4148 14.4133 40.5881 13.5667 40.5081 12.74C40.4415 11.9133 40.2015 11.1333 39.7881 10.4C39.3881 9.65333 38.8548 9.08667 38.1881 8.7L40.8481 6.5C41.8215 7.54 42.4148 8.72 42.6281 10.04C42.8415 11.36 42.6548 12.6667 42.0681 13.96C41.4948 15.2533 40.5748 16.3733 39.3081 17.32H44.4481V10.5L45.8881 6.5ZM54.0469 11.58C54.0735 10.94 54.2069 10.32 54.4469 9.72C54.6869 9.12 55.0202 8.58 55.4469 8.1C55.8869 7.62 56.4402 7.23333 57.1069 6.94C57.7735 6.64667 58.5069 6.5 59.3069 6.5C61.0935 6.5 62.4602 7.1 63.4069 8.3C64.3535 9.5 64.8269 11.1 64.8269 13.1C64.8269 13.8467 64.7469 14.5733 64.5869 15.28C64.4402 15.9867 64.2002 16.66 63.8669 17.3C63.5335 17.9267 63.1269 18.48 62.6469 18.96C62.1802 19.4267 61.6069 19.8 60.9269 20.08C60.2469 20.36 59.5002 20.5 58.6869 20.5C57.4602 20.5 56.3335 20.18 55.3069 19.54L55.6869 18.88C56.3269 19.2133 57.0069 19.38 57.7269 19.38C58.5669 19.38 59.3069 19.14 59.9469 18.66C60.5869 18.1667 61.0602 17.56 61.3669 16.84C61.6735 16.12 61.8269 15.3467 61.8269 14.52C61.5469 15.04 61.1002 15.5 60.4869 15.9C59.8869 16.2867 59.2202 16.48 58.4869 16.48C57.5135 16.48 56.6735 16.24 55.9669 15.76C55.2602 15.2667 54.7535 14.66 54.4469 13.94C54.1535 13.2067 54.0202 12.42 54.0469 11.58ZM61.8069 11.42C61.8069 10.2733 61.5669 9.29333 61.0869 8.48C60.6069 7.65333 60.0269 7.24 59.3469 7.24C58.6802 7.24 58.1069 7.64667 57.6269 8.46C57.1469 9.27333 56.9069 10.26 56.9069 11.42C56.9069 12.5533 57.1469 13.52 57.6269 14.32C58.1069 15.12 58.6802 15.52 59.3469 15.52C60.0269 15.52 60.6069 15.12 61.0869 14.32C61.5669 13.52 61.8069 12.5533 61.8069 11.42ZM70.7036 19C70.7036 18.5867 70.8503 18.2333 71.1436 17.94C71.4369 17.6467 71.7903 17.5 72.2036 17.5C72.6169 17.5 72.9703 17.6467 73.2636 17.94C73.5569 18.2333 73.7036 18.5867 73.7036 19C73.7036 19.8 73.5303 20.5467 73.1836 21.24C72.8503 21.9333 72.4036 22.5067 71.8436 22.96L71.2836 22.48C71.8703 21.9333 72.2103 21.2733 72.3036 20.5C72.2903 20.5 72.2703 20.5 72.2436 20.5C72.2303 20.5133 72.2169 20.52 72.2036 20.52C71.7903 20.52 71.4369 20.3733 71.1436 20.08C70.8503 19.7733 70.7036 19.4133 70.7036 19ZM80.0372 13.06L80.7172 6.5H88.9572V9.36L81.2372 8.7L80.8772 12.24C81.3172 11.7733 81.8839 11.4067 82.5772 11.14C83.2705 10.8733 83.9839 10.74 84.7172 10.74C86.1172 10.74 87.2839 11.1867 88.2172 12.08C89.1639 12.9733 89.6439 14.12 89.6572 15.52C89.6705 16.1467 89.5639 16.7533 89.3372 17.34C89.1105 17.9267 88.7839 18.46 88.3572 18.94C87.9439 19.4067 87.3972 19.7867 86.7172 20.08C86.0505 20.36 85.2972 20.5 84.4572 20.5C83.7239 20.5 83.0305 20.38 82.3772 20.14C81.7372 19.9 81.2039 19.5733 80.7772 19.16C80.3639 18.7467 80.0439 18.2867 79.8172 17.78C79.5905 17.26 79.5105 16.7 79.5772 16.1C79.6439 15.5 79.8639 14.92 80.2372 14.36L82.8172 15.84C82.6039 16.1333 82.4772 16.5 82.4372 16.94C82.4105 17.38 82.4572 17.8067 82.5772 18.22C82.7105 18.62 82.9372 18.9733 83.2572 19.28C83.5905 19.5867 83.9839 19.7467 84.4372 19.76H84.4972C85.2439 19.76 85.8239 19.42 86.2372 18.74C86.6639 18.06 86.8772 17.24 86.8772 16.28C86.8772 15.5733 86.7239 14.8933 86.4172 14.24C86.1239 13.5733 85.6839 13.02 85.0972 12.58C84.5239 12.14 83.8772 11.9267 83.1572 11.94C82.2772 11.9667 81.5039 12.34 80.8372 13.06H80.0372ZM95.3778 13.5C95.3778 12.2333 95.6378 11.0667 96.1578 10C96.6911 8.92 97.4111 8.06667 98.3178 7.44C99.2378 6.81333 100.231 6.5 101.298 6.5C102.364 6.5 103.351 6.81333 104.258 7.44C105.164 8.06667 105.878 8.92 106.398 10C106.931 11.0667 107.198 12.2333 107.198 13.5C107.198 14.7667 106.931 15.94 106.398 17.02C105.878 18.0867 105.164 18.9333 104.258 19.56C103.351 20.1867 102.364 20.5 101.298 20.5C100.231 20.5 99.2378 20.1867 98.3178 19.56C97.4111 18.9333 96.6911 18.0867 96.1578 17.02C95.6378 15.94 95.3778 14.7667 95.3778 13.5ZM103.438 17.92C104.038 16.7067 104.338 15.2333 104.338 13.5C104.338 11.7667 104.038 10.2933 103.438 9.08C102.851 7.85333 102.138 7.24 101.298 7.24C100.444 7.24 99.7245 7.85333 99.1378 9.08C98.5511 10.2933 98.2578 11.7667 98.2578 13.5C98.2578 15.2333 98.5511 16.7067 99.1378 17.92C99.7245 19.1333 100.444 19.74 101.298 19.74C102.138 19.74 102.851 19.1333 103.438 17.92ZM113.23 13.5C113.23 12.2333 113.49 11.0667 114.01 10C114.543 8.92 115.263 8.06667 116.17 7.44C117.09 6.81333 118.083 6.5 119.15 6.5C120.217 6.5 121.203 6.81333 122.11 7.44C123.017 8.06667 123.73 8.92 124.25 10C124.783 11.0667 125.05 12.2333 125.05 13.5C125.05 14.7667 124.783 15.94 124.25 17.02C123.73 18.0867 123.017 18.9333 122.11 19.56C121.203 20.1867 120.217 20.5 119.15 20.5C118.083 20.5 117.09 20.1867 116.17 19.56C115.263 18.9333 114.543 18.0867 114.01 17.02C113.49 15.94 113.23 14.7667 113.23 13.5ZM121.29 17.92C121.89 16.7067 122.19 15.2333 122.19 13.5C122.19 11.7667 121.89 10.2933 121.29 9.08C120.703 7.85333 119.99 7.24 119.15 7.24C118.297 7.24 117.577 7.85333 116.99 9.08C116.403 10.2933 116.11 11.7667 116.11 13.5C116.11 15.2333 116.403 16.7067 116.99 17.92C117.577 19.1333 118.297 19.74 119.15 19.74C119.99 19.74 120.703 19.1333 121.29 17.92Z" fill="white"/>
</svg>
