<svg width="319" height="32" viewBox="0 0 319 32" fill="none" xmlns="http://www.w3.org/2000/svg">
<rect x="0.5" y="0.5" width="318" height="31" stroke="white"/>
<path d="M11.32 7.2H18.736C20.096 7.2 21.256 7.688 22.216 8.664C23.192 9.624 23.68 10.784 23.68 12.144C23.68 13.504 23.192 14.664 22.216 15.624C21.256 16.584 20.096 17.064 18.736 17.064H14.752V24H11.32V7.2ZM16.192 8.088H14.752V16.152H16.192C17.296 16.152 18.24 15.76 19.024 14.976C19.824 14.192 20.224 13.248 20.224 12.144C20.224 11.04 19.824 10.088 19.024 9.288C18.24 8.488 17.296 8.088 16.192 8.088ZM30.3991 7.2H33.8311V23.088H41.7271V24H30.3991V7.2ZM51.4336 24H48.0016V7.2H51.4336V24ZM58.4879 10.536C58.7439 9.56 59.4079 8.76 60.4799 8.136C61.5519 7.512 62.9199 7.2 64.5839 7.2C66.5199 7.2 68.3599 7.656 70.1039 8.568L69.7199 9.312C68.1039 8.416 66.4479 7.968 64.7519 7.968C64.0479 7.968 63.3839 8.096 62.7599 8.352C62.1359 8.592 61.7119 8.992 61.4879 9.552C61.2959 10.064 61.3439 10.584 61.6319 11.112C61.9199 11.624 62.4639 12.032 63.2639 12.336L67.4639 13.944C69.2079 14.632 70.4159 15.56 71.0879 16.728C71.7759 17.88 71.9199 19.04 71.5199 20.208C71.1679 21.296 70.4079 22.2 69.2399 22.92C68.0719 23.64 66.6239 24 64.8959 24C63.6479 24 62.4239 23.744 61.2239 23.232C60.0399 22.72 59.0959 22.024 58.3919 21.144L59.0399 20.592C59.7599 21.424 60.6239 22.056 61.6319 22.488C62.6399 22.92 63.7279 23.136 64.8959 23.136C65.8879 23.136 66.7039 22.936 67.3439 22.536C67.9999 22.136 68.4319 21.624 68.6399 21C68.8639 20.28 68.7599 19.552 68.3279 18.816C67.9119 18.08 67.2079 17.52 66.2159 17.136L61.8239 15.456C60.4639 14.944 59.5039 14.232 58.9439 13.32C58.3839 12.392 58.2319 11.464 58.4879 10.536ZM77.9185 10.536C78.1745 9.56 78.8385 8.76 79.9105 8.136C80.9825 7.512 82.3505 7.2 84.0145 7.2C85.9505 7.2 87.7905 7.656 89.5345 8.568L89.1505 9.312C87.5345 8.416 85.8785 7.968 84.1825 7.968C83.4785 7.968 82.8145 8.096 82.1905 8.352C81.5665 8.592 81.1425 8.992 80.9185 9.552C80.7265 10.064 80.7745 10.584 81.0625 11.112C81.3505 11.624 81.8945 12.032 82.6945 12.336L86.8945 13.944C88.6385 14.632 89.8465 15.56 90.5185 16.728C91.2065 17.88 91.3505 19.04 90.9505 20.208C90.5985 21.296 89.8385 22.2 88.6705 22.92C87.5025 23.64 86.0545 24 84.3265 24C83.0785 24 81.8545 23.744 80.6545 23.232C79.4705 22.72 78.5265 22.024 77.8225 21.144L78.4705 20.592C79.1905 21.424 80.0545 22.056 81.0625 22.488C82.0705 22.92 83.1585 23.136 84.3265 23.136C85.3185 23.136 86.1345 22.936 86.7745 22.536C87.4305 22.136 87.8625 21.624 88.0705 21C88.2945 20.28 88.1905 19.552 87.7585 18.816C87.3425 18.08 86.6385 17.52 85.6465 17.136L81.2545 15.456C79.8945 14.944 78.9345 14.232 78.3745 13.32C77.8145 12.392 77.6625 11.464 77.9185 10.536ZM97.9731 24V7.2H109.325V8.088H101.405V14.112H108.221V15.024H101.405V23.088H109.325V24H97.9731ZM131.381 7.2L137.309 19.128L142.853 7.2L146.933 24H143.405L140.741 13.632L135.989 24L130.997 13.896L129.005 24H128.093L131.381 7.2ZM163.051 24L158.035 12.6L153.187 24H152.203L159.355 7.2L166.819 24H163.051ZM171.892 7.2H175.876L180.004 13.728L184.924 7.2H186.076L180.532 14.544L186.46 24H182.452L178.324 17.472L173.428 24H172.276L177.82 16.656L171.892 7.2ZM196.332 24H192.9V7.2H196.332V24ZM223.257 24H217.089V7.2H223.257C225.577 7.2 227.489 7.992 228.993 9.576C230.513 11.16 231.273 13.168 231.273 15.6C231.273 18.032 230.513 20.04 228.993 21.624C227.489 23.208 225.577 24 223.257 24ZM222.009 8.088H220.545V23.088H222.009C222.809 23.088 223.537 22.944 224.193 22.656C224.849 22.368 225.401 21.984 225.849 21.504C226.297 21.008 226.673 20.44 226.977 19.8C227.281 19.144 227.497 18.464 227.625 17.76C227.769 17.056 227.841 16.336 227.841 15.6C227.841 14.864 227.769 14.144 227.625 13.44C227.497 12.736 227.273 12.064 226.953 11.424C226.649 10.768 226.273 10.2 225.825 9.72C225.393 9.224 224.849 8.832 224.193 8.544C223.537 8.24 222.809 8.088 222.009 8.088ZM244.014 8.088H241.71V15.144H244.014C244.99 15.144 245.814 14.8 246.486 14.112C247.174 13.424 247.518 12.6 247.518 11.64C247.518 10.664 247.174 9.832 246.486 9.144C245.814 8.44 244.99 8.088 244.014 8.088ZM238.254 24V7.2H246.534C247.766 7.2 248.814 7.632 249.678 8.496C250.542 9.36 250.974 10.408 250.974 11.64C250.974 12.872 250.526 13.912 249.63 14.76C248.75 15.608 247.694 16.032 246.462 16.032C247.454 16.576 248.238 17.496 248.814 18.792L251.118 24H247.326L244.686 18.12C244.382 17.4 244.07 16.872 243.75 16.536C243.43 16.2 243.014 16.032 242.502 16.032H241.71V24H238.254ZM258.083 24V7.2H269.435V8.088H261.515V14.112H268.331V15.024H261.515V23.088H269.435V24H258.083ZM275.273 10.536C275.529 9.56 276.193 8.76 277.265 8.136C278.337 7.512 279.705 7.2 281.369 7.2C283.305 7.2 285.145 7.656 286.889 8.568L286.505 9.312C284.889 8.416 283.233 7.968 281.537 7.968C280.833 7.968 280.169 8.096 279.545 8.352C278.921 8.592 278.497 8.992 278.273 9.552C278.081 10.064 278.129 10.584 278.417 11.112C278.705 11.624 279.249 12.032 280.049 12.336L284.249 13.944C285.993 14.632 287.201 15.56 287.873 16.728C288.561 17.88 288.705 19.04 288.305 20.208C287.953 21.296 287.193 22.2 286.025 22.92C284.857 23.64 283.409 24 281.681 24C280.433 24 279.209 23.744 278.009 23.232C276.825 22.72 275.881 22.024 275.177 21.144L275.825 20.592C276.545 21.424 277.409 22.056 278.417 22.488C279.425 22.92 280.513 23.136 281.681 23.136C282.673 23.136 283.489 22.936 284.129 22.536C284.785 22.136 285.217 21.624 285.425 21C285.649 20.28 285.545 19.552 285.113 18.816C284.697 18.08 283.993 17.52 283.001 17.136L278.609 15.456C277.249 14.944 276.289 14.232 275.729 13.32C275.169 12.392 275.017 11.464 275.273 10.536ZM294.703 10.536C294.959 9.56 295.623 8.76 296.695 8.136C297.767 7.512 299.135 7.2 300.799 7.2C302.735 7.2 304.575 7.656 306.319 8.568L305.935 9.312C304.319 8.416 302.663 7.968 300.967 7.968C300.263 7.968 299.599 8.096 298.975 8.352C298.351 8.592 297.927 8.992 297.703 9.552C297.511 10.064 297.559 10.584 297.847 11.112C298.135 11.624 298.679 12.032 299.479 12.336L303.679 13.944C305.423 14.632 306.631 15.56 307.303 16.728C307.991 17.88 308.135 19.04 307.735 20.208C307.383 21.296 306.623 22.2 305.455 22.92C304.287 23.64 302.839 24 301.111 24C299.863 24 298.639 23.744 297.439 23.232C296.255 22.72 295.311 22.024 294.607 21.144L295.255 20.592C295.975 21.424 296.839 22.056 297.847 22.488C298.855 22.92 299.943 23.136 301.111 23.136C302.103 23.136 302.919 22.936 303.559 22.536C304.215 22.136 304.647 21.624 304.855 21C305.079 20.28 304.975 19.552 304.543 18.816C304.127 18.08 303.423 17.52 302.431 17.136L298.039 15.456C296.679 14.944 295.719 14.232 295.159 13.32C294.599 12.392 294.447 11.464 294.703 10.536Z" fill="white"/>
</svg>
