<svg width="350" height="29" viewBox="0 0 350 29" fill="none" xmlns="http://www.w3.org/2000/svg">
<path d="M0.920881 11.016C1.21955 9.75733 2.06221 8.712 3.44888 7.88C4.85688 7.02667 6.65955 6.6 8.85688 6.6C11.5022 6.6 13.9449 7.22933 16.1849 8.488L15.7369 9.32C13.4969 8.104 11.2569 7.496 9.01688 7.496C8.01421 7.496 7.07555 7.67733 6.20088 8.04C5.32621 8.40267 4.72888 8.98933 4.40888 9.8C4.13155 10.504 4.19555 11.2187 4.60088 11.944C5.02755 12.6693 5.80621 13.256 6.93688 13.704L12.6009 15.88C13.7955 16.328 14.8089 16.8933 15.6409 17.576C16.4942 18.2373 17.1022 18.9413 17.4649 19.688C17.8489 20.4133 18.0835 21.1813 18.1689 21.992C18.2542 22.7813 18.1369 23.5387 17.8169 24.264C17.3049 25.6293 16.2915 26.76 14.7769 27.656C13.2835 28.552 11.4489 29 9.27288 29C7.58755 29 5.96621 28.6587 4.40888 27.976C2.85155 27.272 1.63555 26.344 0.760881 25.192L1.52888 24.552C2.44621 25.64 3.56621 26.4827 4.88888 27.08C6.23288 27.6773 7.69421 27.976 9.27288 27.976C10.6595 27.976 11.8009 27.7093 12.6969 27.176C13.5929 26.6213 14.2009 25.9067 14.5209 25.032C14.8835 24.008 14.7769 22.9733 14.2009 21.928C13.6249 20.8827 12.6115 20.0827 11.1609 19.528L5.30488 17.256C3.59821 16.616 2.37155 15.72 1.62488 14.568C0.878214 13.3947 0.643548 12.2107 0.920881 11.016ZM27.5369 29V6.6H31.4729V15.912H40.1129V6.6H44.0809V29H40.1129V16.968H31.4729V29H27.5369ZM53.6079 17.8C53.6079 15.7733 54.0986 13.9067 55.0799 12.2C56.0826 10.472 57.4479 9.10667 59.1759 8.104C60.9039 7.10133 62.7812 6.6 64.8079 6.6C66.8346 6.6 68.7012 7.10133 70.4079 8.104C72.1359 9.10667 73.5012 10.472 74.5039 12.2C75.5066 13.9067 76.0079 15.7733 76.0079 17.8C76.0079 19.8267 75.5066 21.704 74.5039 23.432C73.5012 25.1387 72.1359 26.4933 70.4079 27.496C68.7012 28.4987 66.8346 29 64.8079 29C62.7812 29 60.9039 28.4987 59.1759 27.496C57.4479 26.4933 56.0826 25.1387 55.0799 23.432C54.0986 21.704 53.6079 19.8267 53.6079 17.8ZM61.9599 8.968C60.1679 8.968 58.7172 9.52267 57.6079 10.632C56.1786 12.04 55.6666 13.9493 56.0719 16.36C56.4986 18.7493 57.7039 20.936 59.6879 22.92C60.8612 24.0933 62.1519 25.0107 63.5599 25.672C64.9679 26.312 66.3332 26.632 67.6559 26.632C69.4266 26.632 70.8666 26.0773 71.9759 24.968C73.4052 23.5387 73.9172 21.6293 73.5119 19.24C73.1066 16.8293 71.9119 14.6427 69.9279 12.68C68.7546 11.5067 67.4639 10.6 66.0559 9.96C64.6479 9.29867 63.2826 8.968 61.9599 8.968ZM85.5394 6.6H95.1394C96.9314 6.6 98.4674 7.24 99.7474 8.52C101.049 9.8 101.699 11.3467 101.699 13.16C101.699 14.952 101.049 16.488 99.7474 17.768C98.4674 19.048 96.9314 19.688 95.1394 19.688H89.4754V29H85.5394V6.6ZM92.2274 7.624H89.4754V18.632H92.2274C93.7421 18.632 95.0327 18.0987 96.0994 17.032C97.1874 15.9653 97.7314 14.6747 97.7314 13.16C97.7314 11.6453 97.1874 10.344 96.0994 9.256C95.0327 8.168 93.7421 7.624 92.2274 7.624ZM141.222 29L134.278 12.84L127.526 29H126.374L135.814 6.6L145.542 29H141.222ZM154.324 6.6H158.26V27.944H169.236V29H154.324V6.6ZM177.794 6.6H181.73V27.944H192.706V29H177.794V6.6ZM231.571 29L224.627 12.84L217.875 29H216.723L226.163 6.6L235.891 29H231.571ZM252.513 7.624H248.641V17.288H252.513C253.836 17.288 254.966 16.8187 255.905 15.88C256.844 14.92 257.313 13.7787 257.313 12.456C257.313 11.1333 256.844 10.0027 255.905 9.064C254.966 8.104 253.836 7.624 252.513 7.624ZM244.673 29V6.6H255.425C257.025 6.6 258.401 7.176 259.553 8.328C260.705 9.45867 261.281 10.8347 261.281 12.456C261.281 14.12 260.684 15.5173 259.489 16.648C258.294 17.7573 256.865 18.312 255.201 18.312C256.566 18.9733 257.644 20.2 258.433 21.992L261.441 29H257.089L253.729 21.224C253.302 20.2213 252.844 19.4853 252.353 19.016C251.884 18.5467 251.233 18.312 250.401 18.312H248.641V29H244.673ZM283.978 29L277.034 12.84L270.282 29H269.13L278.57 6.6L288.298 29H283.978ZM277.994 0.199999H281.898L276.522 5.384H275.53L277.994 0.199999ZM300.893 29H296.957V6.6H300.893V29ZM311.489 6.6H315.425V27.944H326.401V29H311.489V6.6ZM334.959 29V6.6H349.871V7.624H338.895V15.912H348.431V16.968H338.895V27.944H349.871V29H334.959ZM341.679 0.199999H345.583L340.207 5.384H339.215L341.679 0.199999Z" fill="#212638"/>
</svg>
